<svg xmlns="http://www.w3.org/2000/svg" width="119" height="57">
  <g fill="none" fill-rule="evenodd">
    <path fill="#764ABC" d="M37.6 38.8c-3.8 7.78-10.5 13-19.34 14.72-1.38.35-2.76.48-4.14.48-5.1 0-9.74-2.13-12-5.57-3.05-4.6-4.1-14.36 5.92-21.58.2 1.1.63 2.6.9 3.5-1.3.97-3.38 2.9-4.7 5.5-1.86 3.65-1.65 7.3.56 10.66 1.52 2.28 3.94 3.65 7.04 4.07 3.8.48 7.6-.2 11.26-2.14 5.38-2.8 8.98-6.18 11.32-10.8-.62-.6-1.03-1.5-1.1-2.53-.07-2.13 1.6-3.92 3.73-4h.14c2.06 0 3.78 1.66 3.85 3.73.07 2.06-1.45 3.78-3.45 3.98zm12.15-8.5c5.18 5.83 5.32 12.7 3.32 16.7-1.87 3.63-6.77 7.28-13.4 7.28-2.9 0-5.94-.76-8.9-2.13.96-.7 2.34-1.8 3.1-2.48 1.38.62 4 1.45 6.77 1.45 4.28 0 7.53-2 9.46-5.64 1.24-2.4 1.3-5.22.14-8.1-1.38-3.6-3.87-6.54-7.32-8.8-4.5-2.97-9.46-4.48-14.7-4.48h-1.25c-.56 1.3-1.87 2.27-3.4 2.34h-.13c-2.07 0-3.8-1.65-3.86-3.7-.07-2.14 1.58-3.93 3.73-4h.14c1.45 0 2.77.83 3.4 2.06h1.1c8.83 0 16.57 3.37 21.8 9.5zm-35.08 9.68c-.07-.76.14-1.5.5-2-3.88-6.66-5.95-15.12-2.78-23.9C14.66 7.47 20.4 3 26.6 3c6.63 0 13.53 5.77 14.36 16.9-1.03-.33-2.55-.82-3.45-1.02-.2-3.64-3.3-12.72-10.63-12.58-2.63.07-6.5 1.3-8.5 3.85-2.4 2.95-3.8 6.53-4.07 10.65-.42 5.5.76 10.6 3.6 15.26.13-.07.33-.07.47-.07h.14c2.07 0 3.8 1.64 3.87 3.7.08 2.14-1.58 3.92-3.72 4h-.14c-2.07 0-3.8-1.66-3.87-3.72z"/>
    <path fill="#47848F" fill-rule="nonzero" d="M84.52 12.2c-7.44-1.36-13.32.05-15.66 4.1-1.75 3.02-1.25 7.02 1.2 11.3.22.36.7.5 1.05.28.38-.2.5-.67.3-1.04-2.22-3.85-2.65-7.3-1.22-9.78 1.95-3.36 7.2-4.62 14.07-3.37.4.06.8-.2.9-.63.06-.4-.2-.8-.63-.88zm11-6.9c-.6 1.18-1.83 1.97-3.24 1.97-2.02 0-3.65-1.62-3.65-3.63 0-2 1.63-3.64 3.65-3.64 2 0 3.65 1.63 3.65 3.64v.15c6.03 3.1 10.23 13.73 10.23 26 0 5.04-.7 9.88-2.02 14.08-.13.4-.56.63-.96.5-.4-.12-.62-.55-.5-.95 1.27-4.05 1.96-8.74 1.96-13.63 0-11.56-3.86-21.5-9.12-24.5zM69.38 39.5h.27c2.02 0 3.65 1.63 3.65 3.64 0 2-1.63 3.64-3.65 3.64S66 45.15 66 43.14c0-1.37.76-2.56 1.88-3.18-.55-6.8 6.62-15.9 17.45-22.15 4.5-2.58 9.2-4.42 13.6-5.36.4-.08.8.18.9.6.1.4-.18.8-.6.9-4.23.9-8.77 2.68-13.13 5.2C75.9 25 69.14 33.45 69.38 39.5zm42.3 5.44c-.3-.53-.48-1.15-.48-1.8 0-2 1.63-3.64 3.65-3.64 2 0 3.65 1.63 3.65 3.64 0 2-1.64 3.64-3.65 3.64-.8 0-1.53-.26-2.13-.7-5.82 3.43-16.94 1.7-27.4-4.34-4.47-2.56-8.37-5.65-11.38-8.94-.28-.3-.26-.8.05-1.08.3-.28.8-.26 1.07.05 2.9 3.18 6.68 6.17 11 8.66 9.88 5.68 20.28 7.37 25.6 4.5zm-.24-13.07c-.28.32-.76.36-1.08.1-.32-.28-.36-.76-.1-1.08 4.5-5.3 6.03-10.45 4.1-13.8-1.42-2.44-4.56-3.8-8.9-3.84-.43 0-.76-.35-.76-.77 0-.43.35-.77.77-.76 4.84.06 8.48 1.63 10.2 4.6 2.34 4.03.64 9.8-4.23 15.53zm-30.56 13.4c-.14-.4.07-.83.46-.97.4-.15.83.06.98.46 2.35 6.54 6.07 10.44 9.96 10.44 2.8 0 5.5-2 7.73-5.67.23-.36.7-.48 1.06-.26.36.2.47.68.26 1.04-2.47 4.1-5.63 6.42-9.04 6.42-4.7 0-8.85-4.37-11.4-11.45zm36.1-2.13c0-1.17-.96-2.12-2.13-2.12s-2.13.95-2.13 2.12c0 1.17.96 2.12 2.13 2.12s2.12-.95 2.12-2.12zm-47.33 2.12c1.17 0 2.12-.95 2.12-2.12 0-1.17-.95-2.12-2.12-2.12-1.17 0-2.12.95-2.12 2.12 0 1.17.95 2.12 2.12 2.12zm22.63-39.5c1.17 0 2.12-.95 2.12-2.12 0-1.17-.95-2.12-2.12-2.12-1.18 0-2.13.95-2.13 2.12 0 1.17.95 2.1 2.13 2.1zm.55 26.6c-1.42.32-2.83-.6-3.14-2-.3-1.43.6-2.83 2.02-3.14 1.42-.3 2.83.6 3.14 2.02.3 1.42-.6 2.82-2.03 3.13z"/>
  </g>
</svg>
